<mxfile host="app.diagrams.net" modified="2024-01-13T14:48:40.433Z" agent="Mozilla/5.0 (Windows NT 10.0; Win64; x64; rv:121.0) Gecko/20100101 Firefox/121.0" etag="HzbRY57nlfzp5bEtKssr" version="22.1.17" type="device">
  <diagram name="Page-1" id="zoXiL-7EKQh0-D_hMCXI">
    <mxGraphModel dx="982" dy="465" grid="1" gridSize="10" guides="1" tooltips="1" connect="1" arrows="1" fold="1" page="1" pageScale="1" pageWidth="850" pageHeight="1100" math="0" shadow="0">
      <root>
        <mxCell id="0" />
        <mxCell id="1" parent="0" />
        <mxCell id="r4oWDvyiEpZnMvECn_-E-22" value="" style="edgeStyle=orthogonalEdgeStyle;rounded=0;orthogonalLoop=1;jettySize=auto;html=1;" parent="1" source="r4oWDvyiEpZnMvECn_-E-3" target="r4oWDvyiEpZnMvECn_-E-4" edge="1">
          <mxGeometry relative="1" as="geometry" />
        </mxCell>
        <mxCell id="r4oWDvyiEpZnMvECn_-E-3" value="START" style="ellipse;whiteSpace=wrap;html=1;" parent="1" vertex="1">
          <mxGeometry x="120" y="50" width="120" height="80" as="geometry" />
        </mxCell>
        <mxCell id="r4oWDvyiEpZnMvECn_-E-59" style="edgeStyle=orthogonalEdgeStyle;rounded=0;orthogonalLoop=1;jettySize=auto;html=1;" parent="1" source="r4oWDvyiEpZnMvECn_-E-4" target="r4oWDvyiEpZnMvECn_-E-54" edge="1">
          <mxGeometry relative="1" as="geometry" />
        </mxCell>
        <mxCell id="r4oWDvyiEpZnMvECn_-E-4" value="TIM CONTENT CREATOR" style="rounded=0;whiteSpace=wrap;html=1;" parent="1" vertex="1">
          <mxGeometry x="120" y="170" width="120" height="60" as="geometry" />
        </mxCell>
        <mxCell id="r4oWDvyiEpZnMvECn_-E-14" value="" style="edgeStyle=orthogonalEdgeStyle;rounded=0;orthogonalLoop=1;jettySize=auto;html=1;" parent="1" source="r4oWDvyiEpZnMvECn_-E-11" target="r4oWDvyiEpZnMvECn_-E-13" edge="1">
          <mxGeometry relative="1" as="geometry" />
        </mxCell>
        <mxCell id="r4oWDvyiEpZnMvECn_-E-11" value="TIM CONTENT CREATOR" style="whiteSpace=wrap;html=1;fontStyle=0;startSize=30;" parent="1" vertex="1">
          <mxGeometry x="120" y="430" width="120" height="60" as="geometry" />
        </mxCell>
        <mxCell id="r4oWDvyiEpZnMvECn_-E-27" style="edgeStyle=orthogonalEdgeStyle;rounded=0;orthogonalLoop=1;jettySize=auto;html=1;" parent="1" source="r4oWDvyiEpZnMvECn_-E-13" target="r4oWDvyiEpZnMvECn_-E-25" edge="1">
          <mxGeometry relative="1" as="geometry" />
        </mxCell>
        <mxCell id="r4oWDvyiEpZnMvECn_-E-13" value="CAPTION &amp;amp; HASHTAG" style="whiteSpace=wrap;html=1;fontStyle=0;startSize=30;" parent="1" vertex="1">
          <mxGeometry x="120" y="550" width="120" height="60" as="geometry" />
        </mxCell>
        <mxCell id="r4oWDvyiEpZnMvECn_-E-32" value="" style="edgeStyle=orthogonalEdgeStyle;rounded=0;orthogonalLoop=1;jettySize=auto;html=1;" parent="1" source="r4oWDvyiEpZnMvECn_-E-15" target="r4oWDvyiEpZnMvECn_-E-30" edge="1">
          <mxGeometry relative="1" as="geometry" />
        </mxCell>
        <mxCell id="r4oWDvyiEpZnMvECn_-E-15" value="POSTING SESUAI JADWAL" style="whiteSpace=wrap;html=1;fontStyle=0;startSize=30;" parent="1" vertex="1">
          <mxGeometry x="120" y="830" width="120" height="60" as="geometry" />
        </mxCell>
        <mxCell id="r4oWDvyiEpZnMvECn_-E-28" style="edgeStyle=orthogonalEdgeStyle;rounded=0;orthogonalLoop=1;jettySize=auto;html=1;entryX=1;entryY=0.5;entryDx=0;entryDy=0;" parent="1" source="r4oWDvyiEpZnMvECn_-E-25" target="r4oWDvyiEpZnMvECn_-E-4" edge="1">
          <mxGeometry relative="1" as="geometry">
            <Array as="points">
              <mxPoint x="360" y="720" />
              <mxPoint x="360" y="200" />
            </Array>
          </mxGeometry>
        </mxCell>
        <mxCell id="r4oWDvyiEpZnMvECn_-E-29" style="edgeStyle=orthogonalEdgeStyle;rounded=0;orthogonalLoop=1;jettySize=auto;html=1;" parent="1" source="r4oWDvyiEpZnMvECn_-E-25" target="r4oWDvyiEpZnMvECn_-E-15" edge="1">
          <mxGeometry relative="1" as="geometry" />
        </mxCell>
        <mxCell id="r4oWDvyiEpZnMvECn_-E-25" value="CO. MEDIA" style="rhombus;whiteSpace=wrap;html=1;" parent="1" vertex="1">
          <mxGeometry x="130" y="670" width="100" height="100" as="geometry" />
        </mxCell>
        <mxCell id="r4oWDvyiEpZnMvECn_-E-30" value="A" style="ellipse;whiteSpace=wrap;html=1;aspect=fixed;fillColor=#d5e8d4;strokeColor=#82b366;fontStyle=1" parent="1" vertex="1">
          <mxGeometry x="155" y="930" width="50" height="50" as="geometry" />
        </mxCell>
        <mxCell id="r4oWDvyiEpZnMvECn_-E-34" style="edgeStyle=orthogonalEdgeStyle;rounded=0;orthogonalLoop=1;jettySize=auto;html=1;entryX=0.5;entryY=0;entryDx=0;entryDy=0;" parent="1" source="r4oWDvyiEpZnMvECn_-E-31" target="r4oWDvyiEpZnMvECn_-E-33" edge="1">
          <mxGeometry relative="1" as="geometry" />
        </mxCell>
        <mxCell id="r4oWDvyiEpZnMvECn_-E-31" value="A" style="ellipse;whiteSpace=wrap;html=1;aspect=fixed;fillColor=#d5e8d4;strokeColor=#82b366;fontStyle=1" parent="1" vertex="1">
          <mxGeometry x="480" y="65" width="50" height="50" as="geometry" />
        </mxCell>
        <mxCell id="r4oWDvyiEpZnMvECn_-E-49" style="edgeStyle=orthogonalEdgeStyle;rounded=0;orthogonalLoop=1;jettySize=auto;html=1;" parent="1" source="r4oWDvyiEpZnMvECn_-E-33" target="r4oWDvyiEpZnMvECn_-E-35" edge="1">
          <mxGeometry relative="1" as="geometry" />
        </mxCell>
        <mxCell id="r4oWDvyiEpZnMvECn_-E-33" value="CO. MEDIA" style="rounded=0;whiteSpace=wrap;html=1;" parent="1" vertex="1">
          <mxGeometry x="445" y="170" width="120" height="60" as="geometry" />
        </mxCell>
        <mxCell id="r4oWDvyiEpZnMvECn_-E-37" value="" style="edgeStyle=orthogonalEdgeStyle;rounded=0;orthogonalLoop=1;jettySize=auto;html=1;" parent="1" source="r4oWDvyiEpZnMvECn_-E-35" target="r4oWDvyiEpZnMvECn_-E-36" edge="1">
          <mxGeometry relative="1" as="geometry" />
        </mxCell>
        <mxCell id="r4oWDvyiEpZnMvECn_-E-35" value="ANALISIS &amp;amp; KINERJA KONTEN" style="rounded=0;whiteSpace=wrap;html=1;" parent="1" vertex="1">
          <mxGeometry x="445" y="280" width="120" height="60" as="geometry" />
        </mxCell>
        <mxCell id="r4oWDvyiEpZnMvECn_-E-42" style="edgeStyle=orthogonalEdgeStyle;rounded=0;orthogonalLoop=1;jettySize=auto;html=1;entryX=0.5;entryY=0;entryDx=0;entryDy=0;" parent="1" source="r4oWDvyiEpZnMvECn_-E-36" target="r4oWDvyiEpZnMvECn_-E-41" edge="1">
          <mxGeometry relative="1" as="geometry" />
        </mxCell>
        <mxCell id="r4oWDvyiEpZnMvECn_-E-36" value="EVALUASI" style="rounded=0;whiteSpace=wrap;html=1;" parent="1" vertex="1">
          <mxGeometry x="445" y="390" width="120" height="60" as="geometry" />
        </mxCell>
        <mxCell id="r4oWDvyiEpZnMvECn_-E-41" value="STOP" style="ellipse;whiteSpace=wrap;html=1;" parent="1" vertex="1">
          <mxGeometry x="445" y="490" width="120" height="60" as="geometry" />
        </mxCell>
        <mxCell id="r4oWDvyiEpZnMvECn_-E-43" value="membuat" style="text;html=1;strokeColor=none;fillColor=none;align=center;verticalAlign=middle;whiteSpace=wrap;rounded=0;" parent="1" vertex="1">
          <mxGeometry x="190" y="235" width="70" height="30" as="geometry" />
        </mxCell>
        <mxCell id="r4oWDvyiEpZnMvECn_-E-44" value="ditinjau oleh" style="text;html=1;strokeColor=none;fillColor=none;align=center;verticalAlign=middle;whiteSpace=wrap;rounded=0;" parent="1" vertex="1">
          <mxGeometry x="185" y="395" width="110" height="30" as="geometry" />
        </mxCell>
        <mxCell id="r4oWDvyiEpZnMvECn_-E-45" value="menyiapkan&amp;nbsp;" style="text;html=1;strokeColor=none;fillColor=none;align=center;verticalAlign=middle;whiteSpace=wrap;rounded=0;" parent="1" vertex="1">
          <mxGeometry x="180" y="505" width="120" height="30" as="geometry" />
        </mxCell>
        <mxCell id="r4oWDvyiEpZnMvECn_-E-46" value="konten direview" style="text;html=1;strokeColor=none;fillColor=none;align=center;verticalAlign=middle;whiteSpace=wrap;rounded=0;" parent="1" vertex="1">
          <mxGeometry x="180" y="620" width="120" height="30" as="geometry" />
        </mxCell>
        <mxCell id="r4oWDvyiEpZnMvECn_-E-47" value="tidak setuju" style="text;html=1;strokeColor=none;fillColor=none;align=center;verticalAlign=middle;whiteSpace=wrap;rounded=0;" parent="1" vertex="1">
          <mxGeometry x="250" y="690" width="100" height="30" as="geometry" />
        </mxCell>
        <mxCell id="r4oWDvyiEpZnMvECn_-E-48" value="setuju" style="text;html=1;strokeColor=none;fillColor=none;align=center;verticalAlign=middle;whiteSpace=wrap;rounded=0;" parent="1" vertex="1">
          <mxGeometry x="180" y="780" width="61" height="30" as="geometry" />
        </mxCell>
        <mxCell id="r4oWDvyiEpZnMvECn_-E-50" value="melakukan" style="text;html=1;strokeColor=none;fillColor=none;align=center;verticalAlign=middle;whiteSpace=wrap;rounded=0;" parent="1" vertex="1">
          <mxGeometry x="510" y="240" width="90" height="30" as="geometry" />
        </mxCell>
        <mxCell id="r4oWDvyiEpZnMvECn_-E-51" value="menyampaikan" style="text;html=1;strokeColor=none;fillColor=none;align=center;verticalAlign=middle;whiteSpace=wrap;rounded=0;" parent="1" vertex="1">
          <mxGeometry x="520" y="350" width="90" height="30" as="geometry" />
        </mxCell>
        <mxCell id="r4oWDvyiEpZnMvECn_-E-60" style="edgeStyle=orthogonalEdgeStyle;rounded=0;orthogonalLoop=1;jettySize=auto;html=1;entryX=0.5;entryY=0;entryDx=0;entryDy=0;" parent="1" source="r4oWDvyiEpZnMvECn_-E-54" target="r4oWDvyiEpZnMvECn_-E-11" edge="1">
          <mxGeometry relative="1" as="geometry" />
        </mxCell>
        <mxCell id="r4oWDvyiEpZnMvECn_-E-54" value="KONTEN" style="swimlane;fontStyle=0;childLayout=stackLayout;horizontal=1;startSize=30;horizontalStack=0;resizeParent=1;resizeParentMax=0;resizeLast=0;collapsible=1;marginBottom=0;whiteSpace=wrap;html=1;" parent="1" vertex="1">
          <mxGeometry x="110" y="270" width="140" height="120" as="geometry" />
        </mxCell>
        <mxCell id="r4oWDvyiEpZnMvECn_-E-55" value="POSTINGAN" style="text;strokeColor=none;fillColor=none;align=left;verticalAlign=middle;spacingLeft=4;spacingRight=4;overflow=hidden;points=[[0,0.5],[1,0.5]];portConstraint=eastwest;rotatable=0;whiteSpace=wrap;html=1;" parent="r4oWDvyiEpZnMvECn_-E-54" vertex="1">
          <mxGeometry y="30" width="140" height="30" as="geometry" />
        </mxCell>
        <mxCell id="r4oWDvyiEpZnMvECn_-E-56" value="VIDEO" style="text;strokeColor=none;fillColor=none;align=left;verticalAlign=middle;spacingLeft=4;spacingRight=4;overflow=hidden;points=[[0,0.5],[1,0.5]];portConstraint=eastwest;rotatable=0;whiteSpace=wrap;html=1;" parent="r4oWDvyiEpZnMvECn_-E-54" vertex="1">
          <mxGeometry y="60" width="140" height="30" as="geometry" />
        </mxCell>
        <mxCell id="r4oWDvyiEpZnMvECn_-E-57" value="STORY" style="text;strokeColor=none;fillColor=none;align=left;verticalAlign=middle;spacingLeft=4;spacingRight=4;overflow=hidden;points=[[0,0.5],[1,0.5]];portConstraint=eastwest;rotatable=0;whiteSpace=wrap;html=1;" parent="r4oWDvyiEpZnMvECn_-E-54" vertex="1">
          <mxGeometry y="90" width="140" height="30" as="geometry" />
        </mxCell>
        <mxCell id="r4oWDvyiEpZnMvECn_-E-61" value="&lt;h1&gt;Informasi Penting&lt;br&gt;&lt;/h1&gt;&lt;p&gt;Lorem ipsum dolor sit amet, consectetur adipisicing elit, sed do eiusmod tempor incididunt ut labore et dolore magna aliqua.&lt;/p&gt;" style="text;html=1;strokeColor=none;fillColor=none;spacing=5;spacingTop=-20;whiteSpace=wrap;overflow=hidden;rounded=0;" parent="1" vertex="1">
          <mxGeometry x="420" y="580" width="370" height="160" as="geometry" />
        </mxCell>
        <mxCell id="sorAtPHi3gpaqwYhqTY1-2" value="merevisi" style="text;html=1;strokeColor=none;fillColor=none;align=center;verticalAlign=middle;whiteSpace=wrap;rounded=0;" vertex="1" parent="1">
          <mxGeometry x="270" y="170" width="70" height="30" as="geometry" />
        </mxCell>
      </root>
    </mxGraphModel>
  </diagram>
</mxfile>
